<?xml version="1.0" standalone="no"?>
<!DOCTYPE svg PUBLIC "-//W3C//DTD SVG 1.1//EN" "http://www.w3.org/Graphics/SVG/1.1/DTD/svg11.dtd" >
<svg xmlns="http://www.w3.org/2000/svg">
<metadata>
Created by FontForge 20120731 at Wed Jul 19 21:36:25 2017
 By admin
</metadata>
<defs>
<font id="iconfont" horiz-adv-x="1024" >
  <font-face 
    font-family="iconfont"
    font-weight="500"
    font-stretch="normal"
    units-per-em="1024"
    panose-1="2 0 6 3 0 0 0 0 0 0"
    ascent="896"
    descent="-128"
    x-height="792"
    bbox="0 -212 1359 896"
    underline-thickness="0"
    underline-position="0"
    unicode-range="U+0078-E751"
  />
<missing-glyph 
 />
    <glyph glyph-name=".notdef" 
 />
    <glyph glyph-name=".notdef" 
 />
    <glyph glyph-name=".null" horiz-adv-x="0" 
 />
    <glyph glyph-name="nonmarkingreturn" horiz-adv-x="341" 
 />
    <glyph glyph-name="x" unicode="x" horiz-adv-x="1001" 
d="M281 543q-27 -1 -53 -1h-83q-18 0 -36.5 -6t-32.5 -18.5t-23 -32t-9 -45.5v-76h912v41q0 16 -0.5 30t-0.5 18q0 13 -5 29t-17 29.5t-31.5 22.5t-49.5 9h-133v-97h-438v97zM955 310v-52q0 -23 0.5 -52t0.5 -58t-10.5 -47.5t-26 -30t-33 -16t-31.5 -4.5q-14 -1 -29.5 -0.5
t-29.5 0.5h-32l-45 128h-439l-44 -128h-29h-34q-20 0 -45 1q-25 0 -41 9.5t-25.5 23t-13.5 29.5t-4 30v167h911zM163 247q-12 0 -21 -8.5t-9 -21.5t9 -21.5t21 -8.5q13 0 22 8.5t9 21.5t-9 21.5t-22 8.5zM316 123q-8 -26 -14 -48q-5 -19 -10.5 -37t-7.5 -25t-3 -15t1 -14.5
t9.5 -10.5t21.5 -4h37h67h81h80h64h36q23 0 34 12t2 38q-5 13 -9.5 30.5t-9.5 34.5q-5 19 -11 39h-368zM336 498v228q0 11 2.5 23t10 21.5t20.5 15.5t34 6h188q31 0 51.5 -14.5t20.5 -52.5v-227h-327z" />
    <glyph glyph-name="jiantouicon" unicode="&#xe626;" 
d="M115 356h794q22 0 37 -15.5t15 -37t-15 -36.5t-37 -15h-794q-22 0 -37 15t-15 36.5t15 37t37 15.5zM484.5 673.5q16.5 -16.5 19.5 -37t-9 -32.5l-323 -323q-15 -14 -45.5 -21t-48.5 8q-16 17 -15 37.5t14 33.5l338 345q12 12 32.5 9t37 -19.5zM115 356h794q22 0 37 -15.5
t15 -37t-15 -36.5t-37 -15h-794q-22 0 -37 15t-15 36.5t15 37t37 15.5zM415 -76l-338 344q-13 13 -14 33.5t15 38.5q18 14 48.5 7t45.5 -21l323 -323q12 -12 9 -32.5t-19.5 -37t-37 -19.5t-32.5 10z" />
    <glyph glyph-name="radio" unicode="&#xe61b;" 
d="M581 136h231q16 0 27 11t11 26.5t-11 26.5t-27 11h-231q-16 0 -27 -11t-11 -26.5t11 -26.5t27 -11zM581 276h231q16 0 27 11t11 26.5t-11 26.5t-27 11h-231q-16 0 -27 -11t-11 -26.5t11 -26.5t27 -11zM581 -3h231q16 0 27 11t11 26.5t-11 26.5t-27 11h-231q-16 0 -27 -11
t-11 -26.5t11 -26.5t27 -11zM330.5 -5q73.5 0 125.5 52t52 125.5t-52 125.5t-125.5 52t-125.5 -52t-52 -125.5t52 -125.5t125.5 -52zM330.5 275q42.5 0 72.5 -30t30 -72.5t-30 -72.5t-72.5 -30t-72.5 30t-30 72.5t30 72.5t72.5 30zM922 506h-658l390 181q13 8 17 23
t-3.5 28.5t-22.5 17.5t-29 -4l-526 -244l-2 -2h-8q-15 0 -26 -11t-11 -27v-590q0 -16 11 -27t26 -11h842q16 0 27 11t11 27v590q0 16 -11 27t-27 11zM885 -85h-767v516h767v-516z" />
    <glyph glyph-name="boy" unicode="&#xe66e;" 
d="M595 443q16 15 34.5 33.5t33.5 33t36 33.5t35 34h-136v75h259v-251h-72v122h-1t-1 1q-19 -21 -41 -43.5t-48.5 -50t-40.5 -43.5q69 -96 53.5 -203t-97.5 -174q-78 -64 -181 -61t-176 72q-76 71 -86.5 172.5t48.5 184.5q39 55 101 86.5t137.5 28t142.5 -49.5zM436 24
q78 -1 137.5 55.5t60.5 140.5q0 81 -57.5 139.5t-138.5 58.5q-82 0 -140 -58t-58 -140q0 -80 57.5 -138t138.5 -58z" />
    <glyph glyph-name="order" unicode="&#xe663;" 
d="M204 -84h-60q-36 0 -56 32q-7 13 -8 28v7v760q0 35 27 55q14 11 33 12h4h615q23 0 39 -13t21 -30q3 -10 3 -23q1 -6 1 -56v-6h6h60q23 -2 39.5 -19t17.5 -41v-6v-762q0 -29 -17 -46q-18 -19 -43 -20h-6h-611q-38 0 -57 33q-8 13 -8 31v58v6zM266 -148h6q432 0 607 -1
q6 0 6 6v756l-1 5h-61v-7v-627q-1 -13 -3 -22q-7 -22 -23.5 -34t-38.5 -12h-485h-7v-64zM451 491h-189h-31q-19 -1 -27 -18t3 -32q9 -15 30 -15q81 1 426 1h5q19 0 27 17t-1 31q-8 16 -29 16h-214zM450 299h-213q-7 0 -12 -1q-16 -3 -22 -19t4 -30q11 -14 29 -14h348h82
q19 0 28 15.5t1 32.5q-9 16 -30 16h-215zM449 43h216q21 0 30 18q9 19 -4 36q-9 11 -28 11h-426h-4q-20 -1 -28.5 -17.5t0.5 -30.5q10 -17 31 -17h213zM543 618h124q20 0 28 18q9 19 -3 35q-9 12 -28 12h-126h-117q-25 0 -32 -19q-6 -18 3.5 -32t27.5 -14h123z" />
    <glyph glyph-name="guanbi" unicode="&#xe614;" 
d="M697 469q8 -8 0 -17l-337 -337q-9 -8 -17 0l-16 16q-8 8 0 17l337 337q9 8 17 0zM681 115q-8 -8 -17 0l-337 337q-8 9 0 17l16 16q8 8 17 0l337 -337q8 -9 0 -17z" />
    <glyph glyph-name="find" unicode="&#xe627;" 
d="M901 392zM962 401zM511 832q-91 0 -174 -35.5t-143 -95.5t-95.5 -142.5t-35.5 -173.5t35.5 -174t95.5 -143t143 -95.5t174 -35.5q158 0 281 99q7 6 8 14.5t-4.5 15.5t-14.5 8t-16 -5q-111 -89 -254 -89q-110 0 -203.5 54t-147.5 147.5t-54 203t54 203t147.5 148
t203.5 54.5t203 -54.5t147.5 -148t54.5 -202.5q0 -102 -47 -191q-4 -7 -1.5 -15.5t10 -13t16 -1.5t12.5 10q53 99 53 211q0 91 -35.5 173.5t-95.5 142.5t-143 95.5t-174 35.5v0v0zM509 601q-89 0 -151.5 -63t-62.5 -151.5t62.5 -151.5t151 -63t151.5 63t63 151.5t-63 151.5
t-151 63v0v0zM509 215q-71 0 -121.5 50.5t-50.5 121.5t50.5 121t121.5 50t121 -50t50 -121t-50 -121.5t-121 -50.5v0v0zM751 114q6 -6 15 -6t15 6.5t6 15t-6 15.5l-86 85q-6 6 -15 6t-15 -6t-6 -15t6 -15l86 -86v0v0zM751 114z" />
    <glyph glyph-name="calendar" unicode="&#xe679;" 
d="M608 735h-209v-42h209v42zM692 623q17 0 29.5 12t12.5 30v125q0 18 -12.5 30t-29.5 12t-29.5 -12t-12.5 -30v-125q0 -18 12.5 -30t29.5 -12zM888 735h-112v-42h112q11 0 19 -8.5t8 -19.5v-168h-809v-28h809v-460q0 -12 -8 -20t-19 -8h-754q-12 0 -20 8t-8 20v656
q0 11 8 19.5t20 8.5h97v42h-97q-29 0 -49.5 -20.5t-20.5 -49.5v-656q0 -29 20.5 -49.5t49.5 -20.5h754q28 0 48.5 20.5t20.5 49.5v656q0 29 -20.5 49.5t-48.5 20.5zM315.5 623q17.5 0 29.5 12t12 30v125q0 18 -12 30t-29.5 12t-30 -12t-12.5 -30v-125q0 -18 12.5 -30t30 -12
z" />
    <glyph glyph-name="girl" unicode="&#xe678;" 
d="M437 173q-17 -30 -23 -39q5 -3 16.5 -9.5t26.5 -15.5t32 -18.5t33 -19t29.5 -17t21.5 -12l8 -4.5l-48 -82q-144 83 -166 96l-67 -115l-81 47q54 94 66 115l-167 96l48 82q144 -83 167 -96q7 13 23 40q-96 77 -118 200.5t42 235.5q35 60 89.5 102t116.5 59.5t129.5 10
t125.5 -41.5q79 -45 122.5 -123.5t42.5 -169t-47 -171.5q-65 -112 -186.5 -154.5t-235.5 4.5v0zM694 705q-87 50 -185 22.5t-149.5 -116.5t-26.5 -187.5t111.5 -148.5t184.5 -22.5t149.5 116.5t27 187.5t-111.5 148.5v0zM694 705z" />
    <glyph glyph-name="caidan" unicode="&#xe662;" 
d="M56 764q-23 0 -38.5 -15.5t-15.5 -38t15.5 -38.5t38.5 -16h914q22 0 38 16q16 15 16 38q0 22 -16 38t-38 16h-914v0zM56 439q-23 0 -38.5 -16t-15.5 -38t15.5 -38t38.5 -16h914q22 0 38 15q16 16 16 39q0 22 -16 38t-38 16h-914v0zM56 126q-23 0 -38.5 -16t-15.5 -38.5
t15.5 -38t38.5 -15.5l914 -1q22 0 38 16t16 38q0 23 -16 38.5t-38 15.5l-914 1v0zM396 234z" />
    <glyph glyph-name="shoppingcart2" unicode="&#xe61c;" 
d="M320 38q-26 0 -45 -19t-19 -45q0 -25 19 -42t45 -17t45 18t19 46q0 27 -18.5 43t-45.5 16v0v0v0zM789 38q-25 0 -44.5 -19t-19.5 -44.5t19.5 -45t45 -19.5t44.5 19.5t19 45t-19 44.5t-45 19v0v0v0zM811 128h-512q-30 0 -52 34t-25 73l-51 533h-43q-7 0 -12.5 1t-10 3
t-7.5 5t-5 5.5t-3.5 7t-2.5 7t-1.5 7.5t-0.5 7v7v5q0 13 8.5 21.5t21.5 8.5h39q32 0 65.5 -27t36.5 -58l43 -469q0 -4 1 -9.5t4 -20.5t7.5 -26t12.5 -20.5t17 -9.5h470q1 0 4 -0.5t10.5 -3t13 -7t10 -13t4.5 -18.5q0 -17 -10.5 -28t-21.5 -13zM341 341q0 21 14 32t29 11h341
q52 0 66 6t20 37q5 21 15 57q5 19 7 27.5t5 22.5t3.5 19t0.5 14t-2 11.5l-6 7.5t-9.5 6t-14 3t-18.5 2h-24h-427q-9 0 -14 1t-13 5t-11.5 14.5t-3.5 26.5q0 13 14.5 26t27.5 13h470q78 -4 106 -20.5t22 -65.5l-43 -213q-7 -22 -18.5 -36.5t-30.5 -23.5t-32 -13.5t-39 -9.5
q-5 -2 -8 -2h-384h-4.5t-9 2.5t-12 6.5t-10.5 12.5t-7 20.5z" />
    <glyph glyph-name="setup" unicode="&#xe61a;" 
d="M949 337v100l-14 4l-107 35l-28 69l54 116l-70 70l-13 -7l-100 -50l-69 28l-43 120h-100l-4 -14l-35 -106l-69 -29l-116 55l-70 -70l7 -14l50 -100l-28 -68l-120 -43v-100l14 -5l106 -34l29 -69l-55 -116l70 -70l14 6l100 51l68 -28l43 -121h100l5 14l34 107l69 28
l116 -54l70 70l-6 13l-51 100l28 69zM511 245q-58 0 -98.5 41t-40.5 99t40.5 98.5t98.5 40.5t99 -40.5t41 -98.5t-41 -99t-99 -41z" />
    <glyph glyph-name="message1" unicode="&#xe60e;" 
d="M511.5 780q87.5 0 167.5 -29q77 -27 136 -77q59 -49 91 -113q33 -65 33 -136.5t-33 -137.5q-32 -64 -91 -113t-136 -77q-80 -28 -167 -28q-80 0 -154 24l-12 4l-9 -10q-23 -24 -74 -48q-21 -10 -44 -19q16 29 22 53t4 63v10l-8 6q-73 51 -113 122t-40 150q0 72 33 137
q33 64 91 113q59 50 136 77q80 29 167.5 29zM751.5 332q34.5 0 59.5 24.5t25 59.5t-25 60t-59.5 25t-59.5 -25t-25 -60t25 -59.5t59.5 -24.5zM512 332q35 0 59.5 24.5t24.5 59.5t-24.5 60t-59.5 25t-60 -25t-25 -60t25 -59.5t60 -24.5zM272 332q35 0 59.5 24.5t24.5 59.5
t-24.5 60t-59.5 25t-60 -25t-25 -60t25 -59.5t60 -24.5zM512 800q-122 0 -225 -50.5t-163 -137t-60 -188.5q0 -85 43 -160.5t118 -127.5q1 -44 -6.5 -67.5t-34.5 -69.5q-2 -4 0 -7.5t6 -3.5q1 0 2 1q39 11 87 34.5t73 49.5q77 -25 160 -25q121 0 224.5 50.5t163 137
t59.5 188.5t-59.5 188.5t-163 137t-224.5 50.5v0zM752 352q-27 0 -45.5 19t-18.5 45.5t18.5 45t45 18.5t45.5 -18.5t19 -45t-19 -45.5t-45 -19v0zM512 352q-27 0 -45.5 19t-18.5 45.5t18.5 45t45 18.5t45.5 -18.5t19 -45t-19 -45.5t-45 -19v0zM272 352q-27 0 -45.5 19
t-18.5 45.5t18.5 45t45 18.5t45.5 -18.5t19 -45t-19 -45.5t-45 -19v0z" />
    <glyph glyph-name="index" unicode="&#xe60d;" 
d="M933 458l-1 1l-381 336q-19 19 -46 19t-46 -19l-382 -337q-14 -15 -18 -35t4 -39q8 -18 24.5 -29.5t36.5 -11.5h24v-306q0 -28 19.5 -47.5t46.5 -19.5h136q27 0 46.5 19.5t19.5 47.5v179h176v-179q0 -28 19.5 -47.5t46.5 -19.5h136q27 0 46.5 19.5t19.5 47.5v306h26
q20 0 36.5 11.5t24.5 29.5q8 19 4 39t-18 35zM912 399q-7 -18 -26 -18h-63v-344q0 -12 -8.5 -20.5t-20.5 -8.5h-136q-12 0 -20.5 8.5t-8.5 20.5v217h-250v-217q0 -12 -8.5 -20.5t-20.5 -8.5h-136q-12 0 -20.5 8.5t-8.5 20.5v344h-61q-19 0 -26 18q-8 18 6 33l380 336
q9 8 21 8t21 -8l380 -336q14 -15 6 -33z" />
    <glyph glyph-name="my" unicode="&#xe601;" 
d="M841 222q-7 8 -17 8t-17.5 -7.5t-7 -17.5t7.5 -17q54 -54 83.5 -124.5t29.5 -148.5q0 -10 7 -17t17 -7t17 7t7 17q0 87 -33 166.5t-94 140.5v0zM533 880q-119 0 -204 -84.5t-85 -204.5q0 -84 44.5 -154t117.5 -106q-103 -32 -180 -109q-61 -61 -94 -140.5t-33 -166.5
q0 -10 7 -17t17 -7t17 7t7 17q0 78 29.5 148.5t83.5 124.5q109 109 262 113h11q120 0 205 85t85 205t-85 204.5t-205 84.5v0zM537 349q-2 1 -4 1h-11q-96 4 -163 74t-67 167q0 100 71 170.5t170.5 70.5t170.5 -70.5t71 -170.5q0 -99 -69.5 -169.5t-168.5 -72.5v0z" />
    <glyph glyph-name="xue" unicode="&#xe60f;" 
d="M371 453h228q60 0 48 -32q-12 -16 -96 -52q-28 -8 -8 -24q8 -8 16 -20h192q16 -12 0 -24h-180q48 -140 -64 -148q-56 0 -96 32q-8 16 12 20q40 -32 84 -28q84 8 36 124h-236q-16 12 0 24h224l-20 20q-16 24 16 40q112 40 68 44h-224q-16 12 0 24zM475 625q0 20 20 16
q40 -60 60 -108h72q28 32 52 96q16 12 24 -8q-12 -32 -44 -88h52q64 0 16 -124q-16 -12 -24 8q40 92 4 92h-360q-24 0 -24 -24v-64q-12 -16 -24 0v72q0 40 40 40h52q-16 28 -48 72q0 16 16 16q40 -48 60 -88h108q-20 44 -52 92zM512 -128q-104 0 -199 40.5t-163.5 109
t-109 163.5t-40.5 199t40.5 199t109 163.5t163.5 109t199 40.5t199 -40.5t163.5 -109t109 -163.5t40.5 -199t-40.5 -199t-109 -163.5t-163.5 -109t-199 -40.5zM512 845q-94 0 -179 -36.5t-147 -98.5t-98.5 -147t-36.5 -179t36.5 -179t98.5 -147t147 -98.5t179 -36.5
t179 36.5t147 98.5t98.5 147t36.5 179t-36.5 179t-98.5 147t-147 98.5t-179 36.5z" />
    <glyph glyph-name="iconcanteen01" unicode="&#xe631;" 
d="M916 454l-214 2v254l200 55q14 4 21.5 16.5t4.5 26.5q-4 14 -17.5 19t-27.5 0l-638 -172q-15 -4 -21.5 -15.5t-2.5 -26.5q3 -12 17.5 -18t26.5 -2v-137l-157 -2q-24 -9 -24 -35v-49v0q0 -117 57 -216t156 -157t215 -58t214.5 57.5t156 157t57.5 216.5v50q0 25 -24 34v0z
M571 677l64 13v-234h-64v221v0zM446 644l61 13v-201h-61v188v0zM324 611l58 13v-168h-58v155v0zM512 -4q-102 0 -186 51.5t-131.5 140t-47.5 194.5v0v0q0 2 0.5 6.5t0.5 5.5h728v-12q0 -1 0.5 -5.5t0.5 -6.5q0 -95 -48.5 -181t-133 -139.5t-183.5 -53.5v0z" />
    <glyph glyph-name="snacks" unicode="&#xe630;" 
d="M1021 448q6 15 -5 26q-52 56 -112.5 99t-106.5 64t-90.5 34t-64 15.5t-28.5 2.5h-2q-24 33 -59 52t-77 19q-23 0 -59 -10q-1 3 -5 6.5t-5 6.5q-2 2 -7 7.5t-9.5 10t-9.5 7.5q-5 4 -15 13t-15 13q-16 12 -34 21l-20 10l-18 7q-5 3 -17.5 6.5t-18.5 6.5q-25 5 -66 11
q-9 1 -18 1t-18 -0.5t-13 -0.5h-13h-5q-4 0 -7 -3.5t-3 -7.5t3 -7t7 -3q23 3 62 -3q26 -3 61 -15q5 -2 16.5 -6t16.5 -7l16 -10l15 -10q15 -8 28 -21q10 -7 26 -23q10 -10 20 -25q1 -2 2.5 -4.5t2.5 -3.5q-31 -23 -48.5 -58t-17.5 -75q0 -27 7 -54l-309 -325q-8 -8 -8 -18
v-281q0 -14 10 -21q10 -5 16 -5h7l973 266q8 2 13 8.5t5 14.5v264q0 2 -3 5zM404 684q6 -11 6 -13l7 -16v-2v-3q6 -9 16 -11t18 4t10.5 15.5t-3.5 17.5q-2 5 -10 15q-1 1 -2.5 5t-2.5 5q10 3 28 3q48 0 81.5 -33.5t33.5 -81.5t-33.5 -81.5t-81.5 -33.5t-81.5 33.5
t-33.5 81.5q7 61 48 95zM346 494q50 -66 130 -66q69 0 118 48.5t49 117.5q0 15 -6 41q27 -5 56.5 -14.5t75 -28.5t96.5 -53.5t98 -80.5l-861 -217zM973 202l-922 -253v228l922 233v-208z" />
    <glyph glyph-name="icon-yxj-express" unicode="&#xe667;" horiz-adv-x="1026" 
d="M691 147h-165q-11 0 -18.5 7.5t-7.5 18.5t7.5 18.5t18.5 7.5h140v435q0 11 -7.5 18t-18.5 7h-410q-10 0 -17.5 -7t-7.5 -18t-7.5 -18.5t-18.5 -7.5h-60q-11 0 -18.5 7.5t-7.5 18.5t7.5 18t18.5 7h39q8 23 27.5 37.5t44.5 14.5h409q32 0 54.5 -22.5t22.5 -54.5v-461
q1 -10 -6.5 -18t-18.5 -8zM347 147h-117q-31 0 -53.5 22.5t-22.5 54.5q0 11 7 18.5t18 7.5t18.5 -7.5t7.5 -18t7.5 -18t17.5 -7.5h117q10 0 17.5 -7.5t7.5 -18.5t-7.5 -18.5t-17.5 -7.5zM974 147h-36q-10 0 -17.5 7.5t-7.5 18.5t7.5 18.5t17.5 7.5h36v160l-98 147h-158v-307
h41q11 0 18.5 -7.5t7.5 -18.5t-7.5 -18.5t-18.5 -7.5h-66q-11 0 -18.5 7.5t-7.5 18.5v358q0 11 7.5 18.5t18.5 7.5h183q28 0 43 -22l98 -147q9 -14 9 -29v-160q0 -21 -15.5 -36.5t-36.5 -15.5zM437.5 57q-47.5 0 -81 34t-33.5 81.5t33.5 81.5t81 34t81.5 -34t34 -81.5
t-34 -81.5t-81.5 -34zM437.5 237q-26.5 0 -45 -19t-18.5 -45.5t18.5 -45t45 -18.5t45.5 18.5t19 45t-19 45.5t-45.5 19zM851 57q-48 0 -81.5 34t-33.5 81.5t33.5 81.5t81.5 34t81.5 -34t33.5 -81.5t-33.5 -81.5t-81.5 -34zM850.5 237q-26.5 0 -45 -19t-18.5 -45.5t18.5 -45
t45 -18.5t45.5 18.5t19 45t-19 45.5t-45.5 19zM261 517h-118q-10 0 -17.5 7.5t-7.5 18t7.5 18t17.5 7.5h118q11 0 18.5 -7.5t7.5 -18t-7.5 -18t-18.5 -7.5zM205 312h-118q-11 0 -18.5 7.5t-7.5 18.5t7.5 18.5t18.5 7.5h118q11 0 18 -7.5t7 -18.5t-7 -18.5t-18 -7.5zM374 425
h-348q-11 0 -18.5 7.5t-7.5 18t7.5 18t18.5 7.5h348q11 0 18 -7.5t7 -18t-7 -18t-18 -7.5zM947 415h-153q-11 0 -18.5 7.5t-7.5 18t7.5 18t18.5 7.5h153q11 0 18.5 -7.5t7.5 -18t-7.5 -18t-18.5 -7.5z" />
    <glyph glyph-name="fankui" unicode="&#xe637;" 
d="M5 -35h1015v-46h-1015v46zM189 299v-196h196zM940 658l-196 196l-522 -522l196 -196z" />
    <glyph glyph-name="ranking" unicode="&#xe67b;" 
d="M870 93v269q0 18 -13 31t-31 13h-180v269q0 19 -13 32t-31 13h-180q-18 0 -31 -13t-13 -32v-112h-180q-18 0 -31 -13t-13 -32v-425h-90v-45h896v45h-90v0zM198 93v390v7v6.5t0.5 5.5t1 4.5t1 3.5t1.5 3.5t3 2t4 2t5 0.5h7h157v-425h-180v0zM422 93v560q0 9 7 15.5t16 6.5
h134q9 0 16 -6.5t7 -15.5v-560h-180v0zM646 93v269h157q16 0 19.5 -9.5t3.5 -29.5v-6v-224h-180v0z" />
    <glyph glyph-name="iconcompleted" unicode="&#xe660;" 
d="M955 512l-136 212q-9 14 -25.5 17.5t-30.5 -5.5l-680 -425q-14 -9 -18 -25t5 -30l137 -212q8 -14 24.5 -17.5t30.5 4.5l681 426q14 9 17.5 25t-5.5 30zM928 480l-681 -426q-10 -6 -17 4l-137 213q-7 10 4 17l681 425q11 7 18 -4l136 -212q7 -11 -4 -17zM146 377
q-2 94 42.5 178t127.5 136t180.5 56t179.5 -39l27 17q-49 28 -105 40q-75 17 -151 4q-78 -13 -145.5 -55t-113.5 -106q-43 -63 -60 -137q-13 -55 -9 -111zM877 396q2 -94 -42.5 -178.5t-127.5 -136t-180.5 -55.5t-179.5 38l-27 -16q49 -28 105 -40q75 -17 151 -4
q78 12 145.5 54.5t113.5 106.5q43 62 60 136q13 56 9 112zM283 463l41 25q27 48 73 77t101 32l42 26q-85 10 -157.5 -35.5t-99.5 -124.5zM740 310l-41 -26q-27 -47 -73 -76t-101 -32l-42 -26q85 -10 157.5 35t99.5 125zM266 144q-5 -4 -8 1l-32 49l121 76q17 11 8 25l-53 81
l-168 -107l15 -24l140 89l28 -43q3 -4 -1 -7l-106 -66l-15 23l-30 -19l73 -111q9 -14 26 -3l158 100l-16 25zM610 357q-6 -4 -8 0l-23 35l38 25l-14 22l-174 -110l14 -23l106 68l32 -49q9 -14 26 -3l51 32l-15 24zM400 373l29 18l-11 16l117 74l10 -16l29 18l-24 38l-73 -46
l-7 10l-32 -19l8 -11l-71 -45zM416 372l14 -23l152 96l-15 23zM513 338l-30 -20l10 -30q1 -6 -2 -8l-22 -14l15 -22l32 20q16 11 12 27zM855 512q-5 -3 -11 3l-8 9l10 6q25 16 11 38l-40 61l-27 -17l37 -56q2 -4 -2 -7l-6 -3l-56 70l21 14q22 14 9 33l-8 14l-26 -17
q6 -9 0 -13l-14 -8l-10 13l-28 -18l10 -13l-98 -63l90 -138q1 -2 -2 -4l-4 -2l15 -23l13 8q22 13 9 33l-52 79l35 22l45 -68q4 -6 -3 -10l-13 -8l15 -23l23 14q24 15 11 36l-66 101l-62 -40l-11 17l73 46l88 -112q15 -18 32 -8l41 26l-16 24z" />
    <glyph glyph-name="other" unicode="&#xe628;" 
d="M362 790h-123q-53 0 -93 -32t-40 -81v-123q0 -51 41 -92t92 -41h123q84 0 98.5 13.5t13.5 89.5v30v123q0 51 -31 82t-81 31zM433 568v-29q-1 -13 1 -23.5t-1 -18.5t-3.5 -14t-6 -9.5t-10 -6t-15.5 -3.5t-21.5 -1.5t-28.5 -0.5h-96q-39 0 -72 33t-33 73v95q0 38 32 62
t73 24h96q39 0 62 -23t23 -63v-95v0zM362 339h-123q-53 0 -93 -31.5t-40 -80.5v-123q0 -51 41 -92t92 -41h123q49 0 80.5 40t31.5 93v123v17q0 23 0.5 32t-2 23t-3 18t-7.5 10.5t-11 7.5t-17.5 3t-23 1.5t-31.5 -0.5h-17zM433 118q0 -42 -23.5 -74t-61.5 -32h-96
q-39 0 -72 33t-33 73v95q0 38 32 61.5t73 23.5h96h19q50 1 58.5 -7.5t7.5 -58.5v-19v-95zM812 790h-123q-53 0 -93 -32t-40 -81v-123q0 -34 1 -53t6.5 -36t12.5 -24t24 -12.5t36 -6.5t53 -1h123q49 0 80.5 40t31.5 93v123q0 51 -30.5 82t-81.5 31zM883 568q0 -42 -23.5 -74
t-61.5 -32h-95q-27 0 -42 1t-28.5 5.5t-19 10t-10 19t-5.5 28.5t-1 42v95q0 38 32 62t74 24h95q40 0 62.5 -23t22.5 -63v-95zM812 339h-123h-29q-16 3 -29 1t-23 -1t-18 -3t-13.5 -6t-9 -9.5t-6 -14t-3.5 -19.5t-1.5 -26t-0.5 -34v-123q0 -51 41 -92t92 -41h123
q49 0 80.5 40t31.5 93v123q0 51 -30.5 81.5t-81.5 30.5zM883 118q0 -42 -23.5 -74t-61.5 -32h-95q-40 0 -73 33t-33 73v95q0 23 1 36.5t3.5 24.5t8 14.5t14 7.5t21.5 2.5t31 0.5q17 -1 27 -1h95q40 0 62.5 -22.5t22.5 -62.5v-95z" />
    <glyph glyph-name="yinxiang" unicode="&#xe63f;" 
d="M581 801v-1v-1h-100q-103 0 -191 -51t-139 -139t-51 -191v-431h319l-0.5 0.5t-0.5 1.5h100q104 0 192 51t139 139t51 191v431h-319zM731.5 558q-30.5 0 -51.5 21t-21 51t21 51.5t51.5 21.5t51.5 -21.5t21 -51.5t-21 -51t-51.5 -21z" />
    <glyph glyph-name="daijinquan" unicode="&#xe642;" 
d="M898 792h-772q-52 0 -88.5 -36t-36.5 -87v-104q0 -7 4.5 -13.5t9.5 -10.5l4 -3q36 -27 57 -67.5t21 -86.5t-21 -86.5t-57 -67.5q-18 -12 -18 -27v-104q0 -51 36.5 -87t88.5 -36h772q52 0 88.5 36t36.5 87v104q0 7 -4.5 13.5t-9.5 10.5l-4 3q-36 27 -57 67.5t-21 86.5
t21 86.5t57 67.5q18 12 18 27v104q0 51 -36.5 87t-88.5 36zM669 418q0 -9 -6.5 -15t-14.5 -6h-109v-53h109q8 0 14.5 -6t6.5 -15v-12q0 -9 -6.5 -15t-14.5 -6h-109v-79q0 -9 -6 -15t-15 -6h-12q-9 0 -15 6t-6 15v79h-109q-8 0 -14.5 6t-6.5 15v12q0 9 6.5 15t14.5 6h109v53
h-109q-8 0 -14.5 6t-6.5 15v12q0 9 6.5 15t14.5 6h87l-79 77q-7 7 -7 16.5t7 16.5l5 5q7 7 17 7t17 -7l89 -88l89 88q7 7 17 7t17 -7l5 -5q7 -7 7 -16.5t-7 -16.5l-79 -77h87q8 0 14.5 -6t6.5 -15v-12v0z" />
    <glyph glyph-name="suspend" unicode="&#xe751;" 
d="M512 -81q-94 0 -180 37t-148.5 99.5t-99.5 148.5t-37 180t37 180t99.5 148.5t148.5 99.5t180 37t180 -37t148.5 -99.5t99.5 -148.5t37 -180t-37 -180t-99.5 -148.5t-148.5 -99.5t-180 -37zM512 791h-1q-110 0 -203.5 -54.5t-148 -148t-54.5 -203.5v-1v-1
q0 -110 54.5 -203.5t148 -148t203.5 -54.5h1h1q110 0 203.5 54.5t148 148t54.5 203.5v1v1q0 110 -54.5 203.5t-148 148t-203.5 54.5h-1zM417 209q-10 0 -19.5 9.5t-9.5 20.5v290q0 11 9.5 20.5t20 9.5t20 -9.5t9.5 -20.5v-290q0 -30 -30 -30zM606.5 209q-10.5 0 -20 9.5
t-9.5 20.5v290q0 30 29.5 30t29.5 -30v-290q0 -11 -9.5 -20.5t-20 -9.5z" />
    <glyph glyph-name="nav" unicode="&#xe606;" horiz-adv-x="1820" 
d="M1179 766h-662q-23 0 -39 -16t-16 -38.5t16 -38.5t39 -16h662q23 0 39 16t16 38.5t-16 38.5t-39 16zM969 439h-452q-23 0 -39 -16t-16 -38.5t16 -38.5t39 -16h452q22 0 38.5 16t16.5 38.5t-16 38.5t-39 16zM517 3h662q23 0 39 16t16 38.5t-16 38.5t-39 16h-662
q-23 0 -39 -16t-16 -38.5t16 -38.5t39 -16zM1138 385l221 -220v441z" />
    <glyph glyph-name="start" unicode="&#xe62a;" 
d="M512 -118q-102 0 -195 40t-160 107t-107 160t-40 195t40 195t107 160t160 107t195 40t195 -40t160 -107t107 -160t40 -195t-40 -195t-107 -160t-160 -107t-195 -40zM512 829q-90 0 -172.5 -35t-142.5 -95t-95 -142.5t-35 -172.5t35 -172.5t95 -142.5t142.5 -95t172.5 -35
t172.5 35t142.5 95t95 142.5t35 172.5t-35 172.5t-95 142.5t-142.5 95t-172.5 35zM433 132q-11 0 -22 5q-10 6 -18 18.5t-8 24.5v0v408v0q0 12 8 24.5t18 18.5q11 5 22 5q16 0 28 -10l276 -204q8 -6 13.5 -17t5.5 -21t-5.5 -21t-13.5 -17l-276 -204q-12 -10 -28 -10v0z
M442 571v-374l252 187z" />
    <glyph glyph-name="sousuo_sousuo" unicode="&#xe59c;" horiz-adv-x="1025" 
d="M1010 -39l-218 215q95 117 95 276q0 91 -35 173t-94 141.5t-141.5 94.5t-173 35t-172.5 -35t-141.5 -94.5t-94.5 -141.5t-35 -172.5t35 -173t94.5 -141.5t141.5 -94t173 -35q147 0 276 95l219 -215q15 -15 35.5 -15t36 15t15.5 35.5t-16 36.5zM68 452.5q0 102.5 50 189
t136.5 136.5t189 50t189 -50t136.5 -136.5t50 -189t-50 -189t-136.5 -136.5t-189 -50t-189 50t-136.5 136.5t-50 189z" />
    <glyph glyph-name="upload-demo" unicode="&#xe693;" 
d="M685 706q1 0 65 -80h112q31 0 52.5 -21t21.5 -51v-420q0 -30 -21.5 -51t-52.5 -21h-700q-31 0 -52.5 21t-21.5 51v420q0 30 21.5 51t52.5 21h213l65 80h245zM274.5 444q17.5 0 29.5 12t12 29t-12 29t-29.5 12t-30 -12.5t-12.5 -29.5t12.5 -28.5t30 -11.5zM575 150
q77 0 130 52.5t53 128t-53.5 128.5t-130 53t-131 -53.5t-54.5 -128.5t54.5 -127.5t131.5 -52.5zM685 754h-245q-21 0 -36 -16l-2 -2q-3 -4 -5 -6q-3 -4 -16 -20q-11 -14 -29 -36h-190q-50 0 -86 -35q-17 -16 -26 -38q-10 -22 -10 -47v-420q0 -25 10 -47q9 -22 26 -39
q36 -34 86 -34h700q50 0 86 34q17 17 26 39q10 22 10 47v420q0 25 -10 47q-9 22 -26 38q-36 35 -86 35h-89q-20 24 -29 36q-1 1 -7 8.5t-9 10.5q-2 3 -5 6q0 1 -0.5 1.5l-1.5 1.5q-14 16 -36 16zM575 198q-57 0 -97.5 38.5t-40.5 93.5t40.5 94.5t97.5 39.5t96 -39t39 -95
t-39 -94t-96 -38z" />
  </font>
</defs>
</svg>
